<?xml version="1.0" encoding="UTF-8"?>
<svg id="Capa_2" data-name="Capa 2" xmlns="http://www.w3.org/2000/svg" viewBox="0 0 55.45 39.85">
  <defs>
    <style>
      .cls-1 {
        fill: #48b9b2;
      }

      .cls-2 {
        fill: #f59b1b;
      }
    </style>
  </defs>
  <g id="PRINT">
    <g>
      <circle class="cls-2" cx="27.79" cy="3.98" r="3.98"/>
      <path class="cls-1" d="M0,35.93s.04-.06.06-.03c.58.72,3.49,3.79,9.6,1.54,6.94-2.55,8.16-10.56,10.63-15.98,0,0,2.82-7.46,6.26-10.06s5.84-4.79,15.84-5.56c8.46-.66,12.03-4.39,12.92-5.52.05-.07.16-.01.14.07-.39,1.32-2.16,5.61-8.84,7.56-7.95,2.32-10.91,2.82-14.85,5.77-3.94,2.96-4.93,4.93-8.73,12.81-3.8,7.88-7.53,11.12-11.12,12.46S1.39,40.67,0,35.93Z"/>
      <path class="cls-1" d="M33.65,21.45c-1.21-1.37-2.73-3.76-.48-5.34,0,0,3.1-1.62,5.35,3.03,0,0,1.76,3.11.91,8.52-.84,5.41-3.03,8.45-7.11,10.59,0,0-1.94,1.16-4.22,1.45-.04,0-.06-.06-.02-.07,1.19-.54,6.56-3.21,7.65-7.66.48-1.97.56-3.6.43-4.95-.2-2.08-1.13-4.01-2.51-5.57Z"/>
    </g>
  </g>
</svg>